<?xml version="1.0" encoding="UTF-8"?>
<!DOCTYPE svg PUBLIC "-//W3C//DTD SVG 1.1//EN" "http://www.w3.org/Graphics/SVG/1.1/DTD/svg11.dtd">
<svg xmlns="http://www.w3.org/2000/svg" version="1.1" width="655px" height="576px" style="shape-rendering:geometricPrecision; text-rendering:geometricPrecision; image-rendering:optimizeQuality; fill-rule:evenodd; clip-rule:evenodd" xmlns:xlink="http://www.w3.org/1999/xlink">
<g><path style="opacity:0.974" fill="#fbc02b" d="M 372.5,-0.5 C 381.833,-0.5 391.167,-0.5 400.5,-0.5C 452.793,0.209002 499.793,16.3757 541.5,48C 614.256,103.675 651.923,177.508 654.5,269.5C 654.5,274.167 654.5,278.833 654.5,283.5C 652.254,348.977 632.087,408.311 594,461.5C 550.531,513.893 495.698,549.059 429.5,567C 410.974,571.764 392.307,574.598 373.5,575.5C 369.5,575.5 365.5,575.5 361.5,575.5C 283.678,572.406 215.678,545.239 157.5,494C 134.692,471.865 113.358,448.532 93.5,424C 116.629,427.157 139.796,430.323 163,433.5C 185.902,433.151 207.068,426.984 226.5,415C 247.359,401.404 267.693,387.071 287.5,372C 306.758,359.763 326.758,348.763 347.5,339C 387.313,324.5 427.98,321.167 469.5,329C 499.493,336.827 526.159,350.66 549.5,370.5C 500.22,457.638 425.554,494.471 325.5,481C 301.003,477.168 278.003,469.168 256.5,457C 270.188,448.316 283.021,438.483 295,427.5C 324.725,443.072 356.225,448.239 389.5,443C 435.187,436.745 472.52,415.912 501.5,380.5C 466.874,361.808 430.207,355.975 391.5,363C 382.481,365.006 373.814,368.006 365.5,372C 348.019,380.572 331.019,389.905 314.5,400C 290.441,417.057 266.108,433.724 241.5,450C 224.75,459.248 207.083,465.915 188.5,470C 257.704,525.884 336.038,545.217 423.5,528C 539.148,493.331 603.648,415.831 617,295.5C 621.589,230.477 603.922,172.477 564,121.5C 509.536,61.0393 441.369,32.5393 359.5,36C 314.113,39.3533 271.78,52.3533 232.5,75C 241.173,78.9989 249.173,83.9989 256.5,90C 285.731,125.912 320.064,155.745 359.5,179.5C 360.583,180.365 360.749,181.365 360,182.5C 353.973,194.027 345.14,202.694 333.5,208.5C 317.869,199.698 303.202,189.531 289.5,178C 265.5,154.667 241.5,131.333 217.5,108C 206.182,97.5069 193.182,89.8402 178.5,85C 170.516,84.0562 162.516,83.2229 154.5,82.5C 179.65,57.4085 208.984,38.5752 242.5,26C 262.59,18.8588 282.923,12.5254 303.5,7C 326.411,2.24358 349.411,-0.25642 372.5,-0.5 Z"/></g>
<g><path style="opacity:0.974" fill="#fbc02b" d="M -0.5,299.5 C -0.5,298.833 -0.5,298.167 -0.5,297.5C 10.1457,280.223 21.3124,263.223 33,246.5C 78.0065,189.698 134.84,173.864 203.5,199C 223.419,207.529 243.419,215.862 263.5,224C 305.801,242.645 338.968,232.478 363,193.5C 370.405,179.244 372.405,164.244 369,148.5C 364.108,127.364 353.608,109.697 337.5,95.5C 360.468,93.6455 383.468,92.8122 406.5,93C 456.565,96.9439 496.732,118.777 527,158.5C 534.38,168.09 540.88,178.257 546.5,189C 531.268,208.875 511.601,222.542 487.5,230C 457.446,238.157 427.113,239.49 396.5,234C 405.837,223.157 411.837,210.657 414.5,196.5C 432.88,195.951 451.213,194.785 469.5,193C 479.652,191.091 489.319,187.758 498.5,183C 473.069,153.116 440.736,136.116 401.5,132C 412.857,176.61 401.857,214.943 368.5,247C 358.86,255.492 348.193,262.492 336.5,268C 318.379,273.271 300.046,273.938 281.5,270C 256.286,263.373 231.953,254.373 208.5,243C 186.028,233.715 162.695,227.882 138.5,225.5C 102.944,230.057 74.9438,247.057 54.5,276.5C 84.6792,282.941 112.013,295.441 136.5,314C 168.425,340.292 201.425,365.126 235.5,388.5C 236.583,389.365 236.749,390.365 236,391.5C 226.012,400.914 214.512,407.914 201.5,412.5C 198.205,411.184 195.205,409.351 192.5,407C 171.414,388.576 149.747,370.91 127.5,354C 103.499,337.162 77.8324,323.162 50.5,312C 33.9146,306.104 16.9146,301.937 -0.5,299.5 Z"/></g>
</svg>
